<?xml version="1.0" encoding="utf-8"?>
<!-- Generator: Adobe Illustrator 16.0.0, SVG Export Plug-In . SVG Version: 6.00 Build 0)  -->
<!DOCTYPE svg PUBLIC "-//W3C//DTD SVG 1.1//EN" "http://www.w3.org/Graphics/SVG/1.1/DTD/svg11.dtd">
<svg version="1.1" id="Layer_1" xmlns="http://www.w3.org/2000/svg" xmlns:xlink="http://www.w3.org/1999/xlink" x="0px" y="0px"
	 width="340.16px" height="70.87px" viewBox="0 0 340.16 70.87" enable-background="new 0 0 340.16 70.87" xml:space="preserve">
<g>
	<g>
		<path fill="#343537" d="M67.426,67.021v1.85c-1.24,0.666-2.66,0.999-4.279,0.999c-1.313,0-2.419-0.258-3.335-0.785
			c-0.912-0.528-1.642-1.259-2.169-2.175c-0.532-0.935-0.801-1.934-0.801-3.007c0-1.711,0.606-3.154,1.823-4.311
			c1.226-1.175,2.729-1.749,4.519-1.749c1.231,0,2.609,0.323,4.113,0.962v1.805c-1.369-0.787-2.716-1.175-4.029-1.175
			c-1.351,0-2.466,0.425-3.35,1.277c-0.888,0.85-1.337,1.914-1.337,3.19c0,1.286,0.44,2.351,1.314,3.183
			c0.879,0.824,1.994,1.24,3.358,1.24C64.674,68.326,66.066,67.892,67.426,67.021z"/>
		<path fill="#343537" d="M89.686,57.992h6.661v1.498h-4.978v3.58h4.811v1.499h-4.811v3.655h5.14v1.499h-6.823V57.992z"/>
		<path fill="#343537" d="M107.273,57.918h1.193l5.264,11.824h-1.721l-1.568-3.488h-5.014l-1.471,3.488h-1.73L107.273,57.918z
			 M109.756,64.764l-1.901-4.265l-1.762,4.265H109.756z"/>
		<path fill="#343537" d="M117.533,57.975h9.816v1.497h-4.089v10.271h-1.698V59.472h-4.028V57.975z"/>
		<path fill="#343537" d="M133.69,57.992h1.679v11.75h-1.679V57.992z"/>
		<path fill="#343537" d="M150.274,57.992h1.674l-4.969,11.796h-0.379l-5.056-11.796h1.684l3.544,8.252L150.274,57.992z"/>
		<path fill="#343537" d="M82.123,69.788l-2.753-5.699c0.588-0.24,1.073-0.583,1.393-1.055c0.333-0.49,0.514-1.082,0.514-1.777
			c0-0.998-0.356-1.794-1.055-2.387c-0.693-0.582-1.641-0.878-2.826-0.878h-2.942v11.75h1.679v-5.117h0.44h1.285l0.056-0.019
			l2.512,5.182H82.123z M76.132,63.127v-3.701h0.504c0.828,0,1.42,0.056,1.772,0.176c0.356,0.121,0.633,0.343,0.828,0.638
			c0.199,0.306,0.3,0.639,0.3,1.009c0,0.38-0.097,0.713-0.272,0.999c-0.176,0.297-0.421,0.51-0.736,0.666
			c-0.314,0.148-0.902,0.214-1.757,0.214H76.132z"/>
		<path fill="#343537" d="M267.231,69.788l-2.758-5.699c0.592-0.24,1.072-0.583,1.396-1.055c0.332-0.49,0.508-1.082,0.508-1.777
			c0-0.998-0.352-1.794-1.055-2.387c-0.693-0.582-1.627-0.878-2.83-0.878h-2.941v11.75h1.684v-5.117h0.443h1.287l0.055-0.019
			l2.508,5.182H267.231z M261.235,63.127v-3.701h0.508c0.824,0,1.416,0.056,1.768,0.176c0.361,0.121,0.629,0.343,0.832,0.638
			c0.195,0.306,0.297,0.639,0.297,1.009c0,0.38-0.092,0.713-0.27,0.999c-0.174,0.297-0.424,0.51-0.738,0.666
			c-0.316,0.148-0.898,0.214-1.758,0.214H261.235z"/>
		<path fill="#343537" d="M158.114,57.992h6.662v1.498h-4.986v3.58h4.814v1.499h-4.814v3.655h5.146v1.499h-6.822V57.992z"/>
		<path fill="#343537" d="M180.146,57.992h6.271v1.498h-4.588v3.276h4.588v1.498h-4.588v5.478h-1.684V57.992z"/>
		<path fill="#343537" d="M196.788,57.918h1.186l5.264,11.824h-1.721l-1.562-3.488h-5.016l-1.461,3.488h-1.74L196.788,57.918z
			 M199.259,64.764l-1.887-4.265l-1.768,4.265H199.259z"/>
		<path fill="#343537" d="M218.892,67.021v1.85c-1.24,0.666-2.656,0.999-4.266,0.999c-1.322,0-2.434-0.258-3.34-0.785
			c-0.916-0.528-1.646-1.259-2.174-2.175c-0.527-0.935-0.805-1.934-0.805-3.007c0-1.711,0.619-3.154,1.832-4.311
			c1.229-1.175,2.729-1.749,4.514-1.749c1.23,0,2.609,0.323,4.107,0.962v1.805c-1.369-0.787-2.711-1.175-4.023-1.175
			c-1.352,0-2.471,0.425-3.35,1.277c-0.889,0.85-1.332,1.914-1.332,3.19c0,1.286,0.436,2.351,1.312,3.183
			c0.871,0.824,1.99,1.24,3.35,1.24C216.144,68.326,217.53,67.892,218.892,67.021z"/>
		<path fill="#343537" d="M224.876,57.975h9.816v1.497h-4.09v10.271h-1.703V59.472h-4.023V57.975z"/>
		<path fill="#343537" d="M246.312,57.825c1.824,0,3.332,0.574,4.543,1.721c1.203,1.157,1.805,2.591,1.805,4.321
			c0,1.738-0.602,3.164-1.822,4.301c-1.221,1.139-2.758,1.702-4.617,1.702c-1.768,0-3.246-0.563-4.432-1.702
			c-1.174-1.137-1.758-2.553-1.758-4.265c0-1.748,0.592-3.2,1.777-4.357C243.001,58.399,244.499,57.825,246.312,57.825z
			 M246.376,59.426c-1.35,0-2.441,0.416-3.311,1.249c-0.861,0.851-1.305,1.924-1.305,3.229c0,1.269,0.443,2.322,1.312,3.164
			c0.861,0.843,1.953,1.259,3.266,1.259c1.297,0,2.396-0.426,3.277-1.286c0.867-0.86,1.312-1.925,1.312-3.21
			c0-1.24-0.445-2.286-1.312-3.137C248.735,59.852,247.653,59.426,246.376,59.426z"/>
		<path fill="#343537" d="M280.349,57.992h2.035l-4.33,5.532v6.218h-1.738v-6.218l-4.34-5.532h2.045l3.137,4.052L280.349,57.992z"/>
	</g>
	<g>
		<polygon fill="#343537" points="8.818,34.864 8.818,1.459 0.001,1.459 0.001,43.19 26.109,43.19 26.109,34.864 		"/>
		<polygon fill="#343537" points="40.735,34.929 40.735,26.305 65.937,26.305 65.937,18.07 40.735,18.07 40.735,9.66 66.492,9.66 
			66.492,1.459 31.918,1.459 31.918,43.134 67.01,43.134 67.01,34.929 		"/>
		<polygon fill="#343537" points="83.302,34.864 83.302,1.459 74.485,1.459 74.485,43.19 100.593,43.19 100.593,34.864 		"/>
		<rect x="106.431" y="1.459" fill="#343537" width="8.816" height="41.731"/>
		<path fill="#343537" d="M193.458,23.537c-1.092-1.166-2.395-2.095-3.895-2.793c2.305-1.916,3.496-4.505,3.496-7.646
			c0-2.28-0.555-4.325-1.646-6.06c-1.092-1.763-2.701-3.155-4.764-4.14c-2.025-0.972-4.682-1.438-8.141-1.438h-11.721V43.19h14.662
			c3.182,0,5.902-0.556,8.059-1.639c2.209-1.082,3.932-2.543,5.098-4.339c1.184-1.812,1.785-3.885,1.785-6.158
			C196.392,28.164,195.411,25.633,193.458,23.537z M182.745,16.654c-0.896,0.814-2.674,1.244-5.145,1.244h-1.998V9.66h3.07
			c4.748,0,5.385,1.961,5.385,3.876C184.058,14.837,183.634,15.854,182.745,16.654z M175.603,26.109h3.488
			c3.146,0,4.682,0.333,5.412,0.61c0.963,0.365,1.666,0.879,2.156,1.583c0.49,0.693,0.73,1.434,0.73,2.257
			c0,0.805-0.23,1.55-0.703,2.28c-0.473,0.719-1.082,1.237-1.859,1.57c-0.49,0.213-1.842,0.573-5.469,0.573h-3.756V26.109z"/>
		<polygon fill="#343537" points="260.948,34.864 260.948,1.459 252.14,1.459 252.14,43.19 278.249,43.19 278.249,34.864 		"/>
		<rect x="284.087" y="1.459" fill="#343537" width="8.816" height="41.731"/>
		<path fill="#343537" d="M223.526-0.059c-12.277,0-22.26,10.015-22.26,22.329c0,12.316,9.982,22.327,22.26,22.327
			s22.258-10.011,22.258-22.327C245.784,9.957,235.804-0.059,223.526-0.059z M223.526,35.465c-7.271,0-13.193-5.923-13.193-13.195
			c0-7.276,5.922-13.197,13.193-13.197c7.281,0,13.201,5.92,13.201,13.197C236.728,29.542,230.808,35.465,223.526,35.465z"/>
		<polygon fill="#343537" points="152.101,43.134 162.522,43.134 144.495,17.505 161.356,1.403 149.907,1.403 134.14,16.391 
			134.14,1.403 125.322,1.403 125.322,43.134 134.14,43.134 134.14,27.395 138.261,23.459 		"/>
		<polygon fill="#343537" points="329.741,43.134 340.159,43.134 322.138,17.505 338.995,1.403 327.55,1.403 311.776,16.391 
			311.776,1.403 302.96,1.403 302.96,43.134 311.776,43.134 311.776,27.395 315.901,23.459 		"/>
	</g>
</g>
</svg>
